<?xml version="1.0" encoding="UTF-8" standalone="no"?>
<!-- Created with Inkscape (http://www.inkscape.org/) -->

<svg
   width="300"
   height="300"
   viewBox="0 0 79.374998 79.375002"
   version="1.1"
   id="svg874"
   inkscape:export-filename="C:\Users\fabia\workspaces\noya_workspace\noya_app\assets\launcher\foreground_bak.png"
   inkscape:export-xdpi="96"
   inkscape:export-ydpi="96"
   inkscape:version="1.2.2 (b0a8486541, 2022-12-01)"
   sodipodi:docname="icone_app2.svg"
   xmlns:inkscape="http://www.inkscape.org/namespaces/inkscape"
   xmlns:sodipodi="http://sodipodi.sourceforge.net/DTD/sodipodi-0.dtd"
   xmlns="http://www.w3.org/2000/svg"
   xmlns:svg="http://www.w3.org/2000/svg"
   xmlns:rdf="http://www.w3.org/1999/02/22-rdf-syntax-ns#"
   xmlns:cc="http://creativecommons.org/ns#"
   xmlns:dc="http://purl.org/dc/elements/1.1/">
  <defs
     id="defs868">
    <filter
       style="color-interpolation-filters:sRGB"
       inkscape:label="Drop Shadow"
       id="filter874">
      <feFlood
         flood-opacity="0.498039"
         flood-color="rgb(0,0,0)"
         result="flood"
         id="feFlood864" />
      <feComposite
         in="flood"
         in2="SourceGraphic"
         operator="in"
         result="composite1"
         id="feComposite866" />
      <feGaussianBlur
         in="composite1"
         stdDeviation="3"
         result="blur"
         id="feGaussianBlur868" />
      <feOffset
         dx="6"
         dy="6"
         result="offset"
         id="feOffset870" />
      <feComposite
         in="SourceGraphic"
         in2="offset"
         operator="over"
         result="composite2"
         id="feComposite872" />
    </filter>
  </defs>
  <sodipodi:namedview
     id="base"
     pagecolor="#ffffff"
     bordercolor="#666666"
     borderopacity="1.0"
     inkscape:pageopacity="0.0"
     inkscape:pageshadow="2"
     inkscape:zoom="1.4"
     inkscape:cx="85.357142"
     inkscape:cy="148.57143"
     inkscape:document-units="mm"
     inkscape:current-layer="layer2"
     showgrid="false"
     units="px"
     inkscape:window-width="1366"
     inkscape:window-height="696"
     inkscape:window-x="0"
     inkscape:window-y="0"
     inkscape:window-maximized="1"
     inkscape:showpageshadow="2"
     inkscape:pagecheckerboard="0"
     inkscape:deskcolor="#d1d1d1" />
  <metadata
     id="metadata871">
    <rdf:RDF>
      <cc:Work
         rdf:about="">
        <dc:format>image/svg+xml</dc:format>
        <dc:type
           rdf:resource="http://purl.org/dc/dcmitype/StillImage" />
      </cc:Work>
    </rdf:RDF>
  </metadata>
  <g
     inkscape:groupmode="layer"
     id="layer2"
     inkscape:label="Logo"
     style="display:inline">
    <g
       aria-label="NO
YA"
       id="text827"
       style="font-size:4.32476px;line-height:0.7;font-family:'Nimbus Roman';-inkscape-font-specification:'Nimbus Roman, ';letter-spacing:0px;word-spacing:0px;display:inline;fill:#cddc3f;stroke-width:0.108119">
      <path
         d="M 39.92534,9.4574259 H 29.762154 V 10.27913 c 3.459808,0.216238 4.022026,0.951448 4.151769,5.535693 V 30.389265 L 17.263597,9.4574259 H 9.8682573 V 10.27913 c 1.8596467,0 2.4651137,0.345981 4.1950177,2.378618 V 31.72994 c -0.0865,4.584246 -0.648714,5.319455 -4.1950177,5.535693 v 0.821704 H 20.031443 v -0.821704 c -3.330065,-0.17299 -3.978779,-1.08119 -4.065274,-5.535693 V 14.776881 l 19.115439,23.78618 h 0.73521 V 15.814823 c 0.129742,-4.49775 0.691961,-5.232959 4.108522,-5.535693 z"
         style="font-size:43.2476px;line-height:0.75"
         id="path875" />
      <path
         d="m 55.364777,8.8519595 c -8.260292,0 -14.141966,6.1844065 -14.141966,14.9204225 0,4.065274 1.383923,8.044053 3.719294,10.509167 2.508361,2.724598 6.357397,4.411255 10.163186,4.411255 8.519777,0 14.401451,-6.011417 14.401451,-14.747432 0,-4.281512 -1.25418,-8.000806 -3.632798,-10.552414 C 63.149345,10.408873 59.516546,8.8519595 55.364777,8.8519595 Z m 0,1.5569135 c 1.989389,0 3.978779,0.778457 5.535692,2.16238 2.335371,2.119133 3.676046,6.184407 3.676046,11.330872 0,2.551608 -0.518971,5.535692 -1.42717,7.784568 -0.389229,1.08119 -1.124438,2.16238 -2.119133,3.157074 -1.513666,1.513666 -3.459808,2.292123 -5.751931,2.292123 -1.989389,0 -3.935531,-0.778457 -5.492445,-2.119132 -2.205628,-1.98939 -3.632798,-6.357397 -3.632798,-11.157881 0,-4.411255 1.210932,-8.606273 3.027332,-10.63891 1.686656,-1.859647 3.805789,-2.811094 6.184407,-2.811094 z"
         style="font-size:43.2476px;line-height:0.75"
         id="path877" />
      <path
         d="m 39.752349,41.893126 h -9.471224 v 0.821705 c 2.248875,0.04325 2.984084,0.389228 2.984084,1.427171 0,0.432476 -0.17299,0.951447 -0.605466,1.600161 l -6.184407,9.773958 -6.400645,-9.600968 c -0.475724,-0.691961 -0.735209,-1.427171 -0.735209,-1.902894 0,-0.821705 0.605466,-1.167685 1.989389,-1.254181 0.172991,0 0.605467,0 1.08119,-0.04325 V 41.893126 H 10.300733 v 0.821705 c 2.075885,0.0865 2.681352,0.691961 7.006112,6.789873 l 5.665435,8.303539 v 7.525083 c -0.04325,3.805789 -0.432476,4.195017 -4.368007,4.368007 v 0.821705 h 13.233765 v -0.821705 c -3.849036,-0.08649 -4.411255,-0.562218 -4.454502,-3.892284 v -8.390034 l 6.400644,-9.773958 c 2.638104,-3.805789 3.762542,-4.757236 5.968169,-4.930226 z"
         style="font-size:43.2476px;line-height:0.75"
         id="path879" />
      <path
         d="M 67.863263,69.701333 C 65.917121,69.571591 65.484645,69.139115 63.970979,65.938792 L 53.202326,41.374155 h -0.864952 l -8.995501,21.234572 c -2.767846,6.31415 -3.286817,7.006111 -5.362702,7.092606 v 0.821705 h 8.563025 v -0.821705 c -2.075885,0 -2.940837,-0.518971 -2.940837,-1.773151 0,-0.518971 0.129743,-1.124438 0.345981,-1.686657 l 1.989389,-5.059969 h 11.330872 l 1.773151,4.15177 c 0.518971,1.167685 0.821705,2.292123 0.821705,2.897589 0,1.08119 -0.73521,1.427171 -3.027332,1.470418 v 0.821705 H 67.863263 Z M 46.671938,59.408405 51.645413,47.515314 56.662134,59.408405 Z"
         style="font-size:43.2476px;line-height:0.75"
         id="path881" />
    </g>
  </g>
</svg>
